<?xml version="1.0" standalone="no"?><!DOCTYPE svg PUBLIC "-//W3C//DTD SVG 1.1//EN" "http://www.w3.org/Graphics/SVG/1.1/DTD/svg11.dtd"><svg t="1592561883974" class="icon" viewBox="0 0 1024 1024" version="1.1" xmlns="http://www.w3.org/2000/svg" p-id="2871" xmlns:xlink="http://www.w3.org/1999/xlink" width="200" height="200"><defs><style type="text/css"></style></defs><path d="M909.59375 828.3125V182c0-16.59375-13.5-30.09375-30.09375-30.09375H143.09375c-16.59375 0-30.09375 13.5-30.09375 30.09375v646.3125H52.90625v60.09375h180.375v-60.09375h-60.09375V377.46875H849.5v450.84375h-60.09375v60.09375h180.375v-60.09375h-60.1875zM173.1875 317.28125V212.09375H849.5v105.1875H173.1875z" p-id="2872"></path><path d="M651.78125 506.75s-37.875 21.65625-83.90625 48l-97.5-65.15625c-10.59375-8.25-32.53125-9.46875-39.65625-2.4375l-16.78125 11.53125c-6.9375 6.9375-4.78125 20.25 4.5 29.625l71.4375 71.25c-46.03125 26.4375-84.28125 48.5625-85.125 49.40625 0 0-49.875-32.625-64.03125-38.8125-14.15625-6.09375-45.65625-20.53125-64.5-9.65625l-2.90625 1.6875c-12.65625 7.3125-13.21875 21.1875-1.59375 31.21875L366.6875 714.78125c17.53125 15 46.96875 18.375 65.90625 7.5L736.0625 547.53125c45.46875-26.15625 39.5625-36.375 32.34375-48.84375-12.9375-22.40625-70.59375-18.46875-116.625 8.0625z" p-id="2873"></path></svg>