<?xml version="1.0" standalone="no"?><!DOCTYPE svg PUBLIC "-//W3C//DTD SVG 1.1//EN" "http://www.w3.org/Graphics/SVG/1.1/DTD/svg11.dtd"><svg t="1574936369662" class="icon" viewBox="0 0 1024 1024" version="1.1" xmlns="http://www.w3.org/2000/svg" p-id="26816" xmlns:xlink="http://www.w3.org/1999/xlink" width="320" height="320"><defs><style type="text/css"></style></defs><path d="M1024 595.2L883.2 384H704V128H384v64h256v256h204.8L960 620.8V832h-70.4c-12.8-70.4-76.8-128-153.6-128s-140.8 57.6-153.6 128H441.6c-12.8-70.4-76.8-128-153.6-128s-140.8 57.6-153.6 128H64V448H0v448h134.4c12.8 70.4 76.8 128 153.6 128s140.8-57.6 153.6-128H576c12.8 70.4 76.8 128 153.6 128s140.8-57.6 153.6-128H1024V595.2zM288 960c-51.2 0-96-44.8-96-96S236.8 768 288 768s96 44.8 96 96S339.2 960 288 960z m448 0c-51.2 0-96-44.8-96-96s44.8-96 96-96 96 44.8 96 96-44.8 96-96 96z" fill="#ffffff" p-id="26817"></path><path d="M0 128h320v64H0zM128 256h192v64H128zM192 384h128v64H192z" fill="#ffffff" p-id="26818"></path></svg>