<?xml version="1.0" standalone="no"?><!DOCTYPE svg PUBLIC "-//W3C//DTD SVG 1.1//EN" "http://www.w3.org/Graphics/SVG/1.1/DTD/svg11.dtd"><svg t="1574935985998" class="icon" viewBox="0 0 1024 1024" version="1.1" xmlns="http://www.w3.org/2000/svg" p-id="14070" xmlns:xlink="http://www.w3.org/1999/xlink" width="300" height="300"><defs><style type="text/css"></style></defs><path d="M382.3 484.3h28.9v28.9h-28.9v-28.9z m0 57.8h28.9v28.9h-28.9v-28.9zM252.2 903.5c-15.9 0-28.9-13-28.9-28.9s13-28.9 28.9-28.9c15.9 0 28.9 13 28.9 28.9s-12.9 28.9-28.9 28.9z m0-86.7c-31.9 0-57.8 25.9-57.8 57.8s25.9 57.8 57.8 57.8 57.8-25.9 57.8-57.8-25.9-57.8-57.8-57.8zM339 94c12 0 21.7 9.7 21.7 21.7S351 137.4 339 137.4 317.3 127.7 317.3 115.7s9.7-21.7 21.7-21.7z m0 72.3c27.9 0 50.6-22.7 50.6-50.6s-22.7-50.6-50.6-50.6-50.6 22.7-50.6 50.6 22.7 50.6 50.6 50.6z m-86.8 289.1c0 23.9-19.5 43.4-43.4 43.4s-43.4-19.5-43.4-43.4 19.5-43.4 43.4-43.4 43.4 19.5 43.4 43.4z m-115.6 0c0 39.9 32.4 72.3 72.3 72.3s72.3-32.4 72.3-72.3-32.4-72.3-72.3-72.3-72.3 32.4-72.3 72.3z m260.2-57.8V368.7c-159.4 0-289.1-129.7-289.1-289.1v-14.5h-28.9v14.5c0 175.3 142.6 318 318 318z m0-57.9V310.8c-71.7 0-130.1-58.4-130.1-130.1h-28.9c0 87.7 71.3 159 159 159z m57.8 534.9h28.9c0-63.8 51.9-115.6 115.6-115.6v-28.9c-79.6 0-144.5 64.8-144.5 144.5z m-390.3 72.3v14.5h28.9v-14.5c0-175.4 142.7-318 318-318v-28.9c-191.2-0.1-346.9 155.6-346.9 346.9zM743.7 367.7l-15.4 1 1.8 28.9 13.6-0.9v15.3h-14.5v28.9h14.5v14.5h-14.5v28.9h14.5v14.5h-14.5V527.7h14.5v14.5h-14.5v28.8h14.5v14.5h-14.5v28.9h14.5v14.5h-14.5v28.9h14.5v245.7c0 15.9-13 28.9-28.9 28.9s-28.9-13-28.9-28.9V656.9c7.9 0.3 12.7 0.8 12.9 0.8l3.2-28.7c-1.1-0.1-6.9-0.7-16-1.1V614.7c8.9-0.2 14.2-0.3 14.4-0.3v-28.9c-1 0-6.2 0-14.5 0.2v-13.7l15.4-1-1.8-28.9-13.6 0.8v-15.3h14.5V498.7h-14.5v-14.5h14.5v-28.9h-14.5v-14.5h14.5v-28.8h-14.5V396.7l13.6 0.9 1.8-28.9-15.4-1v-15.2l12.7 1.6 3.6-28.7-16.1-2c0.7-9.8 6.2-18.3 14.3-23v10.4h28.9V300.4c8.1 4.7 13.6 13.2 14.3 23l-16.1 2 3.6 28.7 12.7-1.6V367.7h-0.1z m217.8 15.4l-1.8-28.9-187 11.7v-17l189.7-23.7-3.6-28.7-182.2 22.8 174.8-67.2-10.4-27L780.9 286.7 926 177.9l-17.3-23.1L783.5 248.7l88.1-132.2-24.1-16-89.6 134.4L801 83.5l-27.8-7.9-43.9 153.7v-164.2h-28.9V229.3l-44-153.7-27.8 7.9 43.2 151.3-89.6-134.4-24.1 16 88.1 132.2L521 154.7l-17.3 23.1L648.8 286.6 488.7 225l-10.4 27 174.8 67.2-182.2-22.8-3.6 28.7L657 348.9v17l-187-11.7-1.8 28.9L657 394.9v17.1H469.1v28.9H657v14.5H469.1v28.9H657v14.5H469.1V527.7H657v17.1l-188.8 11.8 1.8 28.9 187-11.7v13c-47.3 2.4-125.1 9.1-191.9 28.1L473 642.7c62.8-17.9 137.7-24.5 184-26.9v12.2c-46.7 1.9-119.7 13.4-169.2 62.9l20.4 20.4c42-42 106.7-52.4 148.8-54.3v246.5c0 31.9 25.9 57.8 57.8 57.8s57.8-25.9 57.8-57.8V657.8h187.9v-28.9H772.6v-14.5h187.9v-28.9H772.6v-14.5h187.9v-28.9H772.6v-14.5h187.9V498.7H772.6v-14.5h187.9v-28.9H772.6v-14.5h187.9v-28.8H772.6v-17.1l188.9-11.8z" fill="#ffffff" p-id="14071"></path></svg>