<?xml version="1.0" standalone="no"?><!DOCTYPE svg PUBLIC "-//W3C//DTD SVG 1.1//EN" "http://www.w3.org/Graphics/SVG/1.1/DTD/svg11.dtd"><svg t="1566475061649" class="icon" viewBox="0 0 1170 1024" version="1.1" xmlns="http://www.w3.org/2000/svg" p-id="35560" xmlns:xlink="http://www.w3.org/1999/xlink" width="36.5625" height="32"><defs><style type="text/css"></style></defs><path d="M1165.639073 378.297624a18.578206 18.578206 0 0 0-0.438855-25.30732L853.83241 15.803178a21.57705 21.57705 0 0 0-6.143974-4.681123 22.308476 22.308476 0 0 0-19.748487-11.117666H343.516883a22.601046 22.601046 0 0 0-19.382775 10.532526 21.211338 21.211338 0 0 0-7.460539 5.19312L5.305761 352.917162a18.797634 18.797634 0 0 0-5.119978 14.921079 18.724491 18.724491 0 0 0 5.119978 14.921079l566.19643 613.227086c7.826252 8.484535 21.650193 9.508531 31.012439 2.413704 4.095982-3.145129 6.582829-7.314254 7.533682-11.702807a18.651349 18.651349 0 0 0 1.462851-1.389709l548.861647-594.429452a19.236489 19.236489 0 0 0 5.266263-12.580518z m-568.902704 378.293236l303.541556-328.775733a35.400991 35.400991 0 0 1 46.5918-3.583985 28.086737 28.086737 0 0 1 4.169125 42.27639l-326.6546 353.790484a34.523281 34.523281 0 0 1-27.647881 10.605669 34.450138 34.450138 0 0 1-27.647882-10.605669L242.433887 466.507532A28.086737 28.086737 0 0 1 246.603012 424.231142a35.400991 35.400991 0 0 1 46.518658 3.657127l303.541556 328.702591z" p-id="35561" data-spm-anchor-id="a313x.7781069.0.i7" class="" fill="#fed428"></path></svg>