<?xml version="1.0" standalone="no"?><!DOCTYPE svg PUBLIC "-//W3C//DTD SVG 1.1//EN" "http://www.w3.org/Graphics/SVG/1.1/DTD/svg11.dtd"><svg t="1574934759915" class="icon" viewBox="0 0 1024 1024" version="1.1" xmlns="http://www.w3.org/2000/svg" p-id="4965" xmlns:xlink="http://www.w3.org/1999/xlink" width="200" height="200"><defs><style type="text/css"></style></defs><path d="M829.3 197.7c-19.4-19.4-133.8 15.9-153.2 35.4L586.7 340 187 297.9v70.7l58.8 16.8-3.5 6.8 12.7 12.7 21.1-10.8 39.3 11.2-8.4 16.3 12.7 12.7 34.7-17.9 40.8 11.7-11.8 22.9 12.7 12.7 44.1-22.7 50.2 14.3-156.5 186.8c-3.8 4.5-9.6 6.7-15.4 5.8l-90.2-14.2-35.3 35.4 106.9 42.8-2.7 5.3 12.7 12.7 5.3-2.7L357.9 834l35.4-35.4-14.2-90.2c-0.9-5.8 1.3-11.6 5.8-15.4l186.9-156.4 15.4 54-21.8 42.4 12.7 12.7 21.7-11.1 12 42-16.9 32.9 12.7 12.7 15.1-7.8 11.6 40.4-9.9 19.3 12.7 12.7 5.6-2.9 16.1 56.2h70.7l-42.1-399.7L794 350.9c19.4-19.5 54.8-133.8 35.3-153.2z" fill="#ffffff" p-id="4966"></path></svg>