<?xml version="1.0" standalone="no"?><!DOCTYPE svg PUBLIC "-//W3C//DTD SVG 1.1//EN" "http://www.w3.org/Graphics/SVG/1.1/DTD/svg11.dtd"><svg t="1595659203099" class="icon" viewBox="0 0 1024 1024" version="1.1" xmlns="http://www.w3.org/2000/svg" p-id="957" xmlns:xlink="http://www.w3.org/1999/xlink" width="200" height="200"><defs><style type="text/css"></style></defs><path d="M921.6 2.048H102.4C45.8752 2.048 0 47.9232 0 104.448v573.44c0 56.5248 45.8752 102.4 102.4 102.4h122.88c10.6496 0 19.8656-5.3248 25.3952-13.5168 1.8432-1.6384 3.6864-3.6864 5.12-5.9392l169.3696-252.1088 21.9136 111.2064c2.4576 12.288 11.8784 21.7088 24.1664 24.1664 12.0832 2.4576 24.576-2.6624 31.5392-12.9024l211.3536-314.7776 4.7104 84.7872c0.8192 16.384 14.5408 29.0816 30.72 29.0816h1.8432c16.9984-1.024 29.9008-15.36 28.8768-32.3584l-10.24-182.272c-0.6144-10.24-6.144-19.456-14.9504-24.7808-8.8064-5.12-19.6608-5.7344-28.8768-1.2288l-176.128 83.968c-15.36 7.3728-21.9136 25.6-14.5408 40.96 7.3728 15.36 25.6 21.7088 40.96 14.5408l81.3056-38.7072-164.6592 245.1456-21.9136-111.2064c-2.4576-12.288-11.8784-21.7088-24.1664-24.1664-12.288-2.4576-24.576 2.6624-31.5392 12.9024L210.1248 718.848H102.4c-22.528 0-40.96-18.432-40.96-40.96V104.448c0-22.528 18.432-40.96 40.96-40.96h819.2c22.528 0 40.96 18.432 40.96 40.96v573.44c0 22.528-18.432 40.96-40.96 40.96H512c-16.9984 0-30.72 13.7216-30.72 30.72 0 0.8192 0 1.6384 0.2048 2.6624 0 0.8192-0.2048 1.6384-0.2048 2.6624V962.56H102.4c-16.9984 0-30.72 13.7216-30.72 30.72s13.7216 30.72 30.72 30.72h819.2c16.9984 0 30.72-13.7216 30.72-30.72s-13.7216-30.72-30.72-30.72H542.72v-182.272h378.88c56.5248 0 102.4-45.8752 102.4-102.4V104.448c0-56.5248-45.8752-102.4-102.4-102.4z" fill="#ffffff" p-id="958"></path></svg>