<?xml version="1.0" standalone="no"?><!DOCTYPE svg PUBLIC "-//W3C//DTD SVG 1.1//EN" "http://www.w3.org/Graphics/SVG/1.1/DTD/svg11.dtd"><svg t="1566386483431" class="icon" viewBox="0 0 1024 1024" version="1.1" xmlns="http://www.w3.org/2000/svg" p-id="32167" xmlns:xlink="http://www.w3.org/1999/xlink" width="32" height="32"><defs><style type="text/css"></style></defs><path d="M512.11648 236.8C285.983147-91.733333-51.08352 177.066667 6.51648 445.866667c8.533333 40.533333 19.2 78.933333 36.266667 113.066666h217.6l40.533333-70.4c4.266667-6.4 10.666667-10.666667 17.066667-10.666666 6.4 0 12.8 2.133333 19.2 8.533333l72.533333 89.6 93.866667-206.933333c4.266667-8.533333 10.666667-12.8 19.2-12.8s14.933333 4.266667 19.2 12.8l98.133333 194.133333h140.8c12.8 0 21.333333 8.533333 21.333333 21.333333s-8.533333 21.333333-21.333333 21.333334h-153.6c-8.533333 0-14.933333-4.266667-19.2-12.8L520.649813 426.666667l-89.6 198.4c-2.133333 6.4-8.533333 10.666667-17.066666 12.8h-2.133334c-6.4 0-12.8-2.133333-17.066666-8.533334L320.11648 535.466667l-32 55.466666c-4.266667 6.4-10.666667 10.666667-19.2 10.666667H64.11648C192.11648 832 473.71648 925.866667 512.11648 938.666667c46.933333-14.933333 441.6-149.333333 505.6-492.8C1075.31648 177.066667 738.249813-91.733333 512.11648 236.8z m264.533333 279.466667h-83.2c-12.8 0-21.333333-8.533333-21.333333-21.333334s8.533333-21.333333 21.333333-21.333333h83.2c12.8 0 21.333333 8.533333 21.333334 21.333333s-8.533333 21.333333-21.333334 21.333334z" fill="#d81e06" p-id="32168" data-spm-anchor-id="a313x.7781069.0.i11" class="selected"></path></svg>