<?xml version="1.0" standalone="no"?><!DOCTYPE svg PUBLIC "-//W3C//DTD SVG 1.1//EN" "http://www.w3.org/Graphics/SVG/1.1/DTD/svg11.dtd"><svg t="1602741496365" class="icon" viewBox="0 0 1024 1024" version="1.1" xmlns="http://www.w3.org/2000/svg" p-id="2643" xmlns:xlink="http://www.w3.org/1999/xlink" width="200" height="200"><defs><style type="text/css"></style></defs><path d="M761.241978 658.428065a114.566994 114.566994 0 0 0-57.181296-17.936224 149.008633 149.008633 0 0 0-77.365937 35.770248 532.312391 532.312391 0 0 1-64.744149 43.844104 42.311093 42.311093 0 0 1-17.936224 5.621039 123.356255 123.356255 0 0 1-59.429712-23.557263l-2.248416-2.248416a433.484306 433.484306 0 0 1-88.608014-69.547582 618.978592 618.978592 0 0 1-69.547582-88.608015l-2.401717-2.197315c-7.869455-10.220071-33.624033-54.932881-17.936224-77.365936 17.936224-28.054095 33.624033-49.362942 43.741903-65.050751 33.624033-47.114527 51.560257-72.869105 17.936224-134.547233-72.869105-130.101502-144.665103-197.349568-213.088477-197.349569a91.980638 91.980638 0 0 0-25.550177 2.248416c-86.359599 25.550177-155.856081 163.521134-114.362593 326.326863a870.545636 870.545636 0 0 0 223.155247 396.947552 869.268127 869.268127 0 0 0 396.947552 223.155247 342.014671 342.014671 0 0 0 90.85643 10.220071c114.362593 0 213.088477-54.932881 233.273118-130.101502 12.315185-48.238734-7.869455-131.22571-195.101153-235.470433z m118.859424 215.285793c-7.869455 28.054095-67.299167 69.547582-158.104496 69.547582a322.392135 322.392135 0 0 1-72.869105-7.869454 802.735466 802.735466 0 0 1-363.119118-201.8464 786.945456 786.945456 0 0 1-201.846399-359.950896C56.108189 256.983682 103.222716 156.060482 149.213035 142.569989h2.248415c5.621039 0 59.429712 5.621039 142.416688 152.483457a42.770997 42.770997 0 0 1 8.993662 19.060432 99.901193 99.901193 0 0 1-20.440142 35.770248c-13.439393 17.936224-28.054095 39.245072-47.114526 69.547582a150.746045 150.746045 0 0 0 20.440141 163.521134 831.096162 831.096162 0 0 0 80.73856 100.9232 615.094965 615.094965 0 0 0 100.820999 80.84076 216.665502 216.665502 0 0 0 106.544239 35.770248 115.486801 115.486801 0 0 0 57.181296-15.687809 593.990518 593.990518 0 0 0 69.547583-47.114526 183.041469 183.041469 0 0 1 33.624033-20.440142 40.267079 40.267079 0 0 1 17.936224 7.869455c143.540895 78.490144 163.521134 132.298817 158.104496 148.191027z m-318.150806-524.800639a91.009731 91.009731 0 0 1 93.053746 20.440142 82.578173 82.578173 0 0 1 23.557263 75.117521 53.34877 53.34877 0 0 1-5.621039 20.440142 25.550177 25.550177 0 0 0 14.563601 32.499825 12.059684 12.059684 0 0 0 8.993662 2.248415 22.944059 22.944059 0 0 0 23.557264-16.812016 60.298418 60.298418 0 0 0 8.993662-31.375618 137.970957 137.970957 0 0 0-186.158591-150.286142 25.550177 25.550177 0 0 0-14.563601 32.499826 25.550177 25.550177 0 0 0 33.624033 15.687808z" fill="#ffffff" p-id="2644"></path><path d="M561.848396 213.241779a200.057887 200.057887 0 0 1 245.588302 245.588302 25.550177 25.550177 0 0 0 17.936225 32.499826h7.869454a23.557263 23.557263 0 0 0 23.557264-16.812017 249.47193 249.47193 0 0 0-307.266431-307.26643 25.550177 25.550177 0 0 0-17.936224 29.178302 21.104446 21.104446 0 0 0 30.25141 16.812017z" fill="#ffffff" p-id="2645"></path><path d="M917.30246 106.69754A357.089276 357.089276 0 0 0 558.424672 15.89221a24.936973 24.936973 0 0 0-17.936224 32.499826 28.667299 28.667299 0 0 0 31.375617 16.812016 312.529767 312.529767 0 0 1 309.514846 78.490144 305.78452 305.78452 0 0 1 77.365937 308.390639 25.550177 25.550177 0 0 0 17.936224 32.499825h7.869454a20.440142 20.440142 0 0 0 23.557264-16.812017 359.746494 359.746494 0 0 0-90.85643-361.075103z" fill="#ffffff" p-id="2646"></path></svg>