<?xml version="1.0" standalone="no"?><!DOCTYPE svg PUBLIC "-//W3C//DTD SVG 1.1//EN" "http://www.w3.org/Graphics/SVG/1.1/DTD/svg11.dtd"><svg t="1590047739688" class="icon" viewBox="0 0 1024 1024" version="1.1" xmlns="http://www.w3.org/2000/svg" p-id="647" xmlns:xlink="http://www.w3.org/1999/xlink" width="200" height="200"><defs><style type="text/css"></style></defs><path d="M992 960H32a32 32 0 0 0 0 64h960a32 32 0 0 0 0-64zM160 896h704a96.11 96.11 0 0 0 96-96V160a96.11 96.11 0 0 0-96-96H160a96.11 96.11 0 0 0-96 96v640a96.11 96.11 0 0 0 96 96z m-32-736a32 32 0 0 1 32-32h704a32 32 0 0 1 32 32v640a32 32 0 0 1-32 32H160a32 32 0 0 1-32-32V512h224a32 32 0 0 0 30.36-21.88l29.25-87.75L481 679.76A32 32 0 0 0 511.26 704h0.74a32 32 0 0 0 30.64-22.8l72.81-242.71 27.91 55.83A32 32 0 0 0 672 512h128a32 32 0 0 0 0-64H691.78l-55.16-110.31a32 32 0 0 0-59.27 5.12l-62.54 208.47L447 280.24a32 32 0 0 0-61.4-2.36L328.94 448H128V160z" p-id="648"></path></svg>