<?xml version="1.0" standalone="no"?><!DOCTYPE svg PUBLIC "-//W3C//DTD SVG 1.1//EN" "http://www.w3.org/Graphics/SVG/1.1/DTD/svg11.dtd"><svg t="1566543461520" class="icon" viewBox="0 0 1024 1024" version="1.1" xmlns="http://www.w3.org/2000/svg" p-id="74216" xmlns:xlink="http://www.w3.org/1999/xlink" width="32" height="32"><defs><style type="text/css"></style></defs><path d="M512 638.976c14.805333 0 26.794667 11.946667 26.794667 26.666667a26.709333 26.709333 0 0 1-26.794667 26.666666 26.709333 26.709333 0 0 1-26.794667-26.666666c0-14.72 11.989333-26.666667 26.794667-26.666667zM512 896s-67.413333-25.301333-67.413333-61.525333c0-25.685333 25.472-83.584 45.098666-124.373334a49.834667 49.834667 0 0 0 44.629334 0c19.626667 40.789333 45.098667 98.688 45.098666 124.373334C579.413333 870.741333 512 896 512 896z m309.973333-0.298667a31.317333 31.317333 0 0 1-31.36-31.232 275.114667 275.114667 0 0 0-109.653333-220.501333 31.146667 31.146667 0 0 1-5.888-43.818667 31.488 31.488 0 0 1 43.946667-5.845333A336.981333 336.981333 0 0 1 853.333333 864.469333c0 17.194667-14.08 31.232-31.36 31.232zM512 128C384.853333 128 281.386667 230.997333 281.386667 357.546667c0 77.354667 39.978667 149.461333 104.106666 191.573333C257.450667 600.234667 170.666667 725.632 170.666667 864.426667a31.36 31.36 0 0 0 62.72 0c0-152.874667 125.013333-277.290667 278.613333-277.290667 127.146667 0 230.656-102.954667 230.656-229.546667S639.146667 128 512 128z m0 396.672c-92.586667 0-167.893333-74.965333-167.893333-167.082667 0-92.16 75.306667-167.125333 167.893333-167.125333s167.893333 74.965333 167.893333 167.125333S604.586667 524.672 512 524.672z" p-id="74217" fill="#2a8aff"></path></svg>