<?xml version="1.0" standalone="no"?><!DOCTYPE svg PUBLIC "-//W3C//DTD SVG 1.1//EN" "http://www.w3.org/Graphics/SVG/1.1/DTD/svg11.dtd"><svg t="1597224613745" class="icon" viewBox="0 0 1024 1024" version="1.1" xmlns="http://www.w3.org/2000/svg" p-id="717" xmlns:xlink="http://www.w3.org/1999/xlink" width="200" height="200"><defs><style type="text/css"></style></defs><path d="M1011.52 557.44l-82.688-80.96L928.832 525.44l-72.96 0L855.872 243.136 41.088 243.136l0 577.344 814.784 0L855.872 589.44l72.96 0 0 48.96L1011.52 557.44zM787.968 748.224 108.928 748.224 108.928 315.264l679.04 0L787.968 525.44 578.496 525.44l0 64 209.472 0L787.968 748.224z" p-id="718" fill="#ffffff"></path><path d="M128 667.84l116.352 0 0 64-116.352 0 0-64Z" p-id="719" fill="#ffffff"></path><path d="M302.592 667.84l116.352 0 0 64-116.352 0 0-64Z" p-id="720" fill="#ffffff"></path><path d="M477.056 667.84l116.352 0 0 64-116.352 0 0-64Z" p-id="721" fill="#ffffff"></path><path d="M651.648 667.84l116.352 0 0 64-116.352 0 0-64Z" p-id="722" fill="#ffffff"></path><path d="M128 357.312l116.352 0 0 64-116.352 0 0-64Z" p-id="723" fill="#ffffff"></path><path d="M302.592 357.312l116.352 0 0 64-116.352 0 0-64Z" p-id="724" fill="#ffffff"></path><path d="M477.056 357.312l116.352 0 0 64-116.352 0 0-64Z" p-id="725" fill="#ffffff"></path><path d="M651.648 357.312l116.352 0 0 64-116.352 0 0-64Z" p-id="726" fill="#ffffff"></path></svg>