<?xml version="1.0" standalone="no"?><!DOCTYPE svg PUBLIC "-//W3C//DTD SVG 1.1//EN" "http://www.w3.org/Graphics/SVG/1.1/DTD/svg11.dtd"><svg t="1592213009812" class="icon" viewBox="0 0 1024 1024" version="1.1" xmlns="http://www.w3.org/2000/svg" p-id="4823" xmlns:xlink="http://www.w3.org/1999/xlink" width="200" height="200"><defs><style type="text/css"></style></defs><path d="M574.54 687.4c0-118.36 96-214.31 214.31-214.31a213.31 213.31 0 0 1 125.7 40.74c30.37-71.13 43.45-135.42 43.17-183.05-0.61-103.79-78-242.72-222-240.38S513.3 235.05 513.3 235.05C414 97.48 304.49 91.44 271.05 90.41c0 0-205.92 25.78-206 242.14-0.21 331.54 448 601.07 448 601.07a1022.15 1022.15 0 0 0 133.67-85.9 213.77 213.77 0 0 1-72.18-160.32z" p-id="4824"></path><path d="M788.85 517.25A170.15 170.15 0 1 0 959 687.4a170.15 170.15 0 0 0-170.15-170.15z m79.6 194h-55.72V767c0 13.38-10.94 23.3-23.88 23.88S765 779.5 765 767v-55.72h-55.75c-13.39 0-23.31-10.94-23.89-23.88s11.39-23.88 23.89-23.88H765V607.8c0-13.39 10.94-23.3 23.88-23.88s23.88 11.39 23.88 23.88v55.72h55.72c13.39 0 23.3 10.94 23.88 23.88s-11.42 23.88-23.91 23.88z" p-id="4825"></path></svg>