<?xml version="1.0" standalone="no"?><!DOCTYPE svg PUBLIC "-//W3C//DTD SVG 1.1//EN" "http://www.w3.org/Graphics/SVG/1.1/DTD/svg11.dtd"><svg t="1591263291911" class="icon" viewBox="0 0 1024 1024" version="1.1" xmlns="http://www.w3.org/2000/svg" p-id="1568" xmlns:xlink="http://www.w3.org/1999/xlink" width="200" height="200"><defs><style type="text/css"></style></defs><path d="M679.415668 137.242702H675.23716v-27.672243A111.602155 111.602155 0 0 0 561.780964 0.01605h-99.011285a111.602155 111.602155 0 0 0-113.456195 109.44372v27.672243h-4.427559A175.912448 175.912448 0 0 0 166.067892 309.668447v473.638108a174.943919 174.943919 0 0 0 155.684038 170.959116V985.147894a40.34613 40.34613 0 0 0 80.636916 0v-29.387922h203.252623V985.147894a40.34613 40.34613 0 0 0 80.636916 0v-29.636972A175.580381 175.580381 0 0 0 857.873962 783.306555V309.668447a175.525036 175.525036 0 0 0-178.458294-172.453417z m-249.492941-27.672243a32.238163 32.238163 0 0 1 32.736263-31.574029h98.900596a32.238163 32.238163 0 0 1 32.736264 31.574029v27.672243h-164.373123v-27.672243z m25.956564 585.018886a40.34613 40.34613 0 0 1-80.636916 0V384.660225a40.34613 40.34613 0 0 1 80.636916 0v309.92912z m106.731841 0V384.660225a40.34613 40.34613 0 0 1 80.636915 0v309.92912a40.34613 40.34613 0 0 1-80.636915 0z m0 0" p-id="1569"></path></svg>